/vscmnt/brussel_pixiu_data/_data_brussel/112/vsc11236/PredSimResults/SUBJ07mtu3D/worker1.mot
version=1
nRows=9
nColumns=50
inDegrees=yes
endheader
                time	         pelvis_tilt	         pelvis_list	     pelvis_rotation	           pelvis_tx	           pelvis_ty	           pelvis_tz	       hip_flexion_r	     hip_adduction_r	      hip_rotation_r	        knee_angle_r	       ankle_angle_r	         mtp_angle_r	       hip_flexion_l	     hip_adduction_l	      hip_rotation_l	        knee_angle_l	       ankle_angle_l	         mtp_angle_l	    lumbar_extension	      lumbar_bending	     lumbar_rotation	 ercspn_r/activation	 intobl_r/activation	 extobl_r/activation	    abd_r/activation	    add_r/activation	hamstrings_r/activation	bifemsh_r/activation	glut_max_r/activation	iliopsoas_r/activation	rect_fem_r/activation	  vasti_r/activation	gastroc_r/activation	 soleus_r/activation	tib_ant_r/activation	 ercspn_l/activation	 intobl_l/activation	 extobl_l/activation	    abd_l/activation	    add_l/activation	hamstrings_l/activation	bifemsh_l/activation	glut_max_l/activation	iliopsoas_l/activation	rect_fem_l/activation	  vasti_l/activation	gastroc_l/activation	 soleus_l/activation	tib_ant_l/activation	
          1.63068787	         -4.18858099	          0.15026686	         -8.52983525	          1.98943920	          0.85185910	          0.01345826	        -13.94591054	          0.22227136	          4.58782659	         -7.66487635	          8.96198813	         25.13774595	         29.57335319	         -2.28786739	         -3.27615878	         -5.32140134	          3.37354047	          0.26125849	        -10.44551971	          1.51883726	          2.51938316	          0.08864515	          0.01000038	          0.01000117	          0.03789503	          0.01000159	          0.01007484	          0.15381892	          0.01665854	          0.22708455	          0.01000447	          0.01000056	          0.13732314	          0.26632069	          0.01663609	          0.12226484	          0.17590421	          0.01000169	          0.04039849	          0.09495620	          0.06216388	          0.13549190	          0.03792869	          0.01946406	          0.01418901	          0.01000138	          0.01001033	          0.01000129	          0.42695024	
          1.64155912	         -4.20544525	          0.03586965	         -8.54101279	          2.00483527	          0.85030932	          0.01357667	        -14.34908103	          0.27077975	          4.26778537	         -8.81523431	          8.17713448	         26.78424504	         29.29659306	         -2.13539430	         -3.13269361	         -6.46533944	          3.12395981	          0.26400775	        -10.31894086	          1.13125941	          2.69928333	          0.12629823	          0.01000071	          0.01000125	          0.03208217	          0.01555621	          0.01612863	          0.13022463	          0.01410359	          0.24889321	          0.01002080	          0.01000559	          0.11625865	          0.24813745	          0.01408423	          0.10351104	          0.14892173	          0.01000239	          0.03420166	          0.11744010	          0.05262845	          0.11483864	          0.09553770	          0.01647910	          0.01201301	          0.01000248	          0.01658275	          0.01404453	          0.42477714	
          1.65243038	         -4.21484220	         -0.05405252	         -8.50616631	          2.02044484	          0.84888208	          0.01365805	        -14.62562544	          0.30634748	          3.91731930	        -10.22456907	          7.31021482	         28.40374485	         28.93634694	         -2.03486522	         -2.87270220	         -7.72704072	          2.87310864	          0.25022054	        -10.17468105	          0.70323110	          2.86886795	          0.14731411	          0.01000026	          0.01000139	          0.02716096	          0.01317067	          0.01367042	          0.11024956	          0.01194032	          0.21071551	          0.01000274	          0.01000046	          0.09842530	          0.21009815	          0.01192381	          0.10660616	          0.12608153	          0.01000081	          0.08451188	          0.10630988	          0.05923644	          0.12158415	          0.11740590	          0.01395165	          0.01017067	          0.01000020	          0.01403941	          0.01189031	          0.47547975	
          1.66330163	         -4.22098281	         -0.13822205	         -8.42123178	          2.03608423	          0.84775823	          0.01363247	        -14.69354047	          0.34998925	          3.53858229	        -12.00422286	          6.32426183	         29.95227854	         28.53979495	         -1.94125864	         -2.65439410	         -8.88214967	          2.47809104	          0.23702697	        -10.03337322	          0.26970168	          3.02336741	          0.17092993	          0.01000027	          0.01000110	          0.02299464	          0.01115107	          0.01163666	          0.09333844	          0.01010897	          0.17839378	          0.01000402	          0.01000078	          0.08332746	          0.17787045	          0.01009482	          0.12297520	          0.10674151	          0.01000089	          0.13696932	          0.11823803	          0.05311815	          0.10293532	          0.13643911	          0.01181191	          0.01000114	          0.01000039	          0.01188615	          0.01006657	          0.50214593	
          1.67417288	         -4.22428748	         -0.21695022	         -8.29255239	          2.05158112	          0.84709244	          0.01349997	        -14.47974617	          0.40269860	          3.13380372	        -14.25140874	          5.19798042	         31.34049308	         28.19618750	         -1.83932112	         -2.48532402	        -10.12897811	          2.20994885	          0.21825022	         -9.91101341	         -0.16718864	          3.16188483	          0.20639948	          0.01000033	          0.01000092	          0.01946740	          0.01910082	          0.01351881	          0.07902136	          0.01000059	          0.15102972	          0.01000261	          0.01000082	          0.07054554	          0.15058618	          0.01000016	          0.12859679	          0.09036808	          0.01000090	          0.17702347	          0.13618580	          0.04854759	          0.08714652	          0.15747679	          0.01000132	          0.01000216	          0.01588644	          0.01006392	          0.01000276	          0.51474044	
          1.68504413	         -4.22527694	         -0.28950147	         -8.12523866	          2.06682688	          0.84701110	          0.01327029	        -13.92401263	          0.46300590	          2.69879368	        -17.04188041	          3.90956177	         32.42126000	         27.92054326	         -1.72828163	         -2.35311935	        -11.49395641	          2.13914468	          0.20071250	         -9.81321776	         -0.60496651	          3.28494793	          0.23576530	          0.01000032	          0.01000098	          0.01648122	          0.04150759	          0.01158048	          0.06690047	          0.01000031	          0.12786300	          0.01000143	          0.01000032	          0.05972429	          0.12748715	          0.01000032	          0.13304515	          0.07650621	          0.01000077	          0.20218082	          0.15246822	          0.04751266	          0.07377974	          0.16965258	          0.01000123	          0.01000186	          0.04565256	          0.01000197	          0.01000147	          0.51313045	
          1.69591539	         -4.22537021	         -0.36119035	         -7.91973407	          2.08178408	          0.84761272	          0.01295795	        -12.98517062	          0.53346054	          2.22700092	        -20.41450473	          2.41295473	         33.01307706	         27.63510012	         -1.60957732	         -2.24364638	        -12.81934313	          2.22238837	          0.18468282	         -9.73711282	         -1.03439664	          3.39055598	          0.25200873	          0.01000032	          0.01000097	          0.01395311	          0.06077965	          0.01056753	          0.05663885	          0.01000020	          0.10824983	          0.01000103	          0.01000019	          0.05056296	          0.10793137	          0.01000047	          0.13109670	          0.06477066	          0.01000071	          0.20946246	          0.16494063	          0.04912688	          0.06246352	          0.17108145	          0.01000155	          0.01000219	          0.07068055	          0.01001707	          0.01140703	          0.49880330	
          1.70678664	         -4.22573664	         -0.43480359	         -7.67601580	          2.09646619	          0.84888950	          0.01257302	        -11.64916474	          0.60970997	          1.73057967	        -24.36154083	          0.68034587	         32.89868407	         27.25365180	         -1.48097472	         -2.13694769	        -13.94730465	          2.44054856	          0.17416714	         -9.67546087	         -1.44888066	          3.47658435	          0.25694718	          0.01000018	          0.01000071	          0.01181280	          0.08300857	          0.01002184	          0.04795124	          0.01000012	          0.09164513	          0.01000102	          0.01000011	          0.04280693	          0.09137534	          0.04140387	          0.11098802	          0.05483527	          0.01000061	          0.20600416	          0.16956771	          0.05603807	          0.05288336	          0.15882443	          0.01000129	          0.01000229	          0.09474621	          0.01000106	          0.01000053	          0.47804914	
          1.71765789	         -4.22728786	         -0.51205660	         -7.39371983	          2.11085657	          0.85071910	          0.01211813	         -9.92565877	          0.68960719	          1.24072482	        -28.84164115	         -1.19265718	         31.72941369	         26.73346749	         -1.33955156	         -1.99747853	        -14.79196112	          2.75549662	          0.17304752	         -9.62916316	         -1.84262548	          3.54218266	          0.24808092	          0.01000400	          0.01000103	          0.01000082	          0.08630224	          0.01395845	          0.04059616	          0.01000037	          0.07758745	          0.01000097	          0.01000051	          0.03624065	          0.07735891	          0.12337417	          0.09396322	          0.04642389	          0.01000139	          0.21478433	          0.16078348	          0.06295806	          0.04477282	          0.13446256	          0.01000125	          0.01000124	          0.09944569	          0.01002122	          0.01001608	          0.44508159	
